<svg width="66" height="36" viewBox="0 0 296 160" fill="none" xmlns="http://www.w3.org/2000/svg"><g clip-path="url(#clip0)"><path d="M0 136h276.437c10.847 0 19.612-8.764 19.612-19.612V36H0v100z" fill="#00548D"/><path d="M156.969 91.46l-6.107-19.11-5.962 19.182h12.069v-.072zm-.36-25.431l13.722 40.517h-8.621l-2.73-8.405h-16.092l-2.801 8.405h-8.621l12.643-37.428a4.554 4.554 0 014.311-3.09h8.189zm39.152 30.172c0 2.946-1.58 3.951-5.316 3.951h-8.405V89.089h9.123c3.233 0 4.598 1.365 4.598 4.095V96.2zm-13.721-23.85h7.902c3.017 0 4.31 1.005 4.31 3.304v3.592c0 2.37-1.149 3.736-4.382 3.736h-7.83V72.35zm15.589 13.074c3.304-1.365 4.813-3.233 4.813-6.537V74.72c0-5.46-3.304-8.62-11.566-8.62h-17.098v40.517h18.247c7.903 0 11.854-3.592 11.854-9.267v-4.31c.072-4.096-2.299-6.825-6.25-7.616zm-81.178-13.721h11.782V68.76a4.016 4.016 0 00-4.023-4.023h-7.831c-10.56.072-15.086 4.382-15.086 11.71v18.247c0 7.327 4.526 11.638 15.086 11.709h11.351v-2.945a4.016 4.016 0 00-4.023-4.023h-7.328c-5.172-.144-6.896-1.94-6.896-6.106v-15.59c.071-4.022 1.796-5.89 6.968-6.034zm139.368 28.089V65.382h-3.664a4.507 4.507 0 00-4.526 4.526v36.566h26.077v-6.753h-17.887v.072zm-24.497-8.333l-6.106-19.11-5.963 19.182h12.069v-.072zm-.359-25.431l13.721 40.517h-8.62l-2.73-8.405h-16.092l-2.802 8.405h-8.621l12.285-36.279c.862-2.514 3.233-4.238 5.891-4.238h6.968zM56.68 53.529l30.03 29.526c1.652 1.652 1.652 4.382 0 5.962l-30.03 29.526V102.02l14.081-13.937a2.948 2.948 0 000-4.166L56.681 69.98V53.529zm-5.53 0L21.12 83.055c-1.652 1.652-1.652 4.382 0 5.962l30.029 29.526V102.02L37.07 88.083a2.948 2.948 0 010-4.166L51.15 69.98V53.529z" fill="#fff"/></g><defs><clipPath id="clip0"><path fill="#fff" d="M0 0h296v160H0z"/></clipPath></defs></svg>